<svg width="87" height="15" viewBox="0 0 87 15" fill="none" xmlns="http://www.w3.org/2000/svg">
<g clip-path="url(#clip0_700_1266)">
<path d="M10.085 0.0117188H6.0895C2.72601 0.0117188 0 2.71341 0 6.04538V8.71641C0 12.1874 2.83948 15.0001 6.34189 15.0001H8.19315V13.0418C8.19315 12.7434 8.43728 12.5022 8.73849 12.5022H10.085C13.5661 12.5022 16.3877 9.70646 16.3877 6.25729C16.3877 2.80812 13.5661 0.0117188 10.085 0.0117188ZM10.1036 10.0042L7.37686 10.0165C6.78407 10.0165 6.30269 10.5596 6.30269 11.1476V12.5029C6.30269 12.5029 2.52039 12.3945 2.52039 8.86904V5.96634C2.52039 4.05778 4.08213 2.51036 6.00836 2.51036H10.1029C12.1921 2.51036 13.8852 4.18792 13.8852 6.25797C13.8852 8.32802 12.1921 10.0049 10.1029 10.0049L10.1036 10.0042Z" fill="white"/>
<path d="M69.7814 2.6574C70.522 2.6574 71.1224 2.06252 71.1224 1.3287C71.1224 0.594879 70.522 0 69.7814 0C69.0408 0 68.4404 0.594879 68.4404 1.3287C68.4404 2.06252 69.0408 2.6574 69.7814 2.6574Z" fill="white"/>
<path d="M77.5768 2.6574C78.3174 2.6574 78.9178 2.06252 78.9178 1.3287C78.9178 0.594879 78.3174 0 77.5768 0C76.8362 0 76.2358 0.594879 76.2358 1.3287C76.2358 2.06252 76.8362 2.6574 77.5768 2.6574Z" fill="white"/>
<path d="M26.9776 3.72626C27.5133 4.0288 27.9376 4.45875 28.2518 5.01544C28.5661 5.57282 28.7229 6.21877 28.7229 6.95603C28.7229 7.69328 28.5654 8.33992 28.2518 8.89661C27.9376 9.45398 27.5126 9.88325 26.9776 10.1858C26.4418 10.4883 25.847 10.6396 25.1916 10.6396C24.3506 10.6396 23.6821 10.3895 23.187 9.88939V13.0728H20.6646V3.39102H23.0673V4.10102C23.5363 3.54842 24.2447 3.27246 25.1916 3.27246C25.8463 3.27246 26.4418 3.42373 26.9776 3.72626ZM25.7493 8.19887C26.0327 7.89634 26.1743 7.48206 26.1743 6.95534C26.1743 6.42863 26.0327 6.01503 25.7493 5.71182C25.466 5.40928 25.1029 5.25802 24.6607 5.25802C24.2185 5.25802 23.8554 5.40928 23.5721 5.71182C23.2888 6.01435 23.1471 6.42863 23.1471 6.95534C23.1471 7.48206 23.2888 7.89566 23.5721 8.19887C23.8554 8.50141 24.2179 8.65267 24.6607 8.65267C25.1036 8.65267 25.466 8.50141 25.7493 8.19887Z" fill="white"/>
<path d="M31.5273 10.1702C30.9077 9.85475 30.4229 9.41594 30.0735 8.85448C29.7235 8.29302 29.5488 7.65728 29.5488 6.94728C29.5488 6.23728 29.7235 5.61449 30.0735 5.05303C30.4229 4.49157 30.9056 4.05549 31.5204 3.74409C32.1359 3.4327 32.8326 3.27734 33.6117 3.27734C34.3909 3.27734 35.0896 3.43338 35.7092 3.74409C36.3288 4.05549 36.8108 4.48953 37.1561 5.04622C37.5013 5.60359 37.6739 6.2366 37.6739 6.94728C37.6739 7.65797 37.5013 8.2937 37.1561 8.85448C36.8108 9.41594 36.3281 9.85407 35.7092 10.1702C35.0896 10.4857 34.3902 10.6438 33.6117 10.6438C32.8332 10.6438 32.1469 10.4857 31.5273 10.1702ZM34.7003 8.20375C34.9837 7.90122 35.1253 7.48217 35.1253 6.94728C35.1253 6.41239 34.9837 6.00901 34.7003 5.71057C34.417 5.4128 34.0539 5.26358 33.6117 5.26358C33.1695 5.26358 32.8064 5.4128 32.5231 5.71057C32.2398 6.00901 32.0981 6.42125 32.0981 6.94728C32.0981 7.47331 32.2398 7.90122 32.5231 8.20375C32.8064 8.50629 33.1688 8.65756 33.6117 8.65756C34.0546 8.65756 34.417 8.50629 34.7003 8.20375Z" fill="white"/>
<path d="M42.0426 3.5206C42.4539 3.35843 42.9256 3.27734 43.4565 3.27734V5.26358C42.5763 5.20362 41.923 5.63221 41.6177 5.92112C41.3123 6.2107 41.1597 6.6536 41.1597 7.24982V10.5252H38.6372V3.39522H41.04V4.25036C41.2965 3.92602 41.6307 3.68277 42.0426 3.5206Z" fill="white"/>
<path d="M50.1417 10.2365C49.9292 10.368 49.6706 10.4689 49.3653 10.5391C49.06 10.6092 48.7347 10.6447 48.3895 10.6447C47.4515 10.6447 46.7301 10.4164 46.2253 9.96056C45.7205 9.50472 45.4682 8.8247 45.4682 7.92118V5.24061H44.4194V3.27755H45.4682V1.80371H47.9906V3.27686H49.6369V5.23993H47.9906V7.89461C47.9906 8.14876 48.0594 8.34841 48.1962 8.49286C48.3331 8.63732 48.5167 8.71022 48.7471 8.71022C49.0393 8.71022 49.2959 8.63595 49.5173 8.48673L50.141 10.2365H50.1417Z" fill="white"/>
<path d="M57.1803 4.08615C56.5517 3.54649 55.6399 3.27734 54.4447 3.27734C53.8697 3.27734 53.2955 3.35025 52.7247 3.49471C52.154 3.63916 51.6698 3.84289 51.271 4.10591L52.1209 5.80256C52.3692 5.60904 52.6704 5.45914 53.0239 5.34875C53.378 5.23973 53.7274 5.18386 54.0733 5.18386C55.0457 5.18386 55.556 5.56203 55.5993 6.31496H54.1654C53.0775 6.31496 52.2709 6.50234 51.7496 6.87505C51.2263 7.24709 50.9663 7.77108 50.9663 8.44701C50.9663 8.8681 51.0701 9.24287 51.2785 9.57129C51.4869 9.9004 51.7943 10.1614 52.2007 10.3542C52.6085 10.5477 53.0906 10.6431 53.649 10.6431C54.7025 10.6431 55.4109 10.2963 55.7733 9.60332V10.5239H58.1231V6.56502C58.1231 5.45096 57.8081 4.62512 57.181 4.08478L57.1803 4.08615ZM55.5993 8.23714C55.5023 8.50901 55.3435 8.71547 55.1227 8.85584C54.8999 8.9962 54.6441 9.06639 54.3525 9.06639C54.0609 9.06639 53.8292 9.00029 53.6621 8.86879C53.4929 8.73728 53.409 8.56216 53.409 8.34208C53.409 7.86102 53.7762 7.61913 54.5114 7.61913H55.5993V8.23782V8.23714Z" fill="white"/>
<path d="M65.6738 3.72458C66.2096 4.02303 66.6339 4.45026 66.9481 5.00695C67.2624 5.56432 67.4192 6.21027 67.4192 6.94753C67.4192 7.68479 67.2617 8.33347 66.9481 8.89425C66.6339 9.45571 66.2089 9.88771 65.6738 10.1902C65.1381 10.4928 64.5433 10.644 63.8879 10.644C62.941 10.644 62.2326 10.3681 61.7636 9.81548V10.5255H59.3608V0.764648H61.8833V4.01417C62.3702 3.52289 63.0386 3.27759 63.8879 3.27759C64.5426 3.27759 65.1381 3.42682 65.6738 3.72458ZM64.4456 8.20401C64.729 7.90147 64.8706 7.48242 64.8706 6.94753C64.8706 6.41265 64.729 6.00927 64.4456 5.71082C64.1623 5.41305 63.7992 5.26383 63.357 5.26383C62.9148 5.26383 62.5517 5.41305 62.2684 5.71082C61.9851 6.00927 61.8434 6.4215 61.8434 6.94753C61.8434 7.47356 61.9851 7.90147 62.2684 8.20401C62.5517 8.50654 62.9141 8.65781 63.357 8.65781C63.7999 8.65781 64.1623 8.50654 64.4456 8.20401Z" fill="white"/>
<path d="M72.418 0.764648H74.9404V10.5255H72.418V0.764648Z" fill="white"/>
<path d="M81.4837 10.4401C80.8998 10.3045 80.4301 10.1266 80.0767 9.90722L80.8331 8.19694C81.1605 8.39863 81.5504 8.55876 82.0015 8.67732C82.4526 8.79588 82.8996 8.85516 83.3425 8.85516C83.7496 8.85516 84.0398 8.81359 84.2124 8.73046C84.385 8.64734 84.4717 8.52673 84.4717 8.36865C84.4717 8.21057 84.3679 8.09882 84.1595 8.03341C83.9511 7.96731 83.6217 7.90395 83.1706 7.84262C82.595 7.77244 82.106 7.68045 81.7037 7.56666C81.3007 7.45287 80.9535 7.24232 80.6612 6.93502C80.3689 6.62839 80.2231 6.19844 80.2231 5.64584C80.2231 5.18999 80.36 4.78389 80.6344 4.42888C80.9088 4.07388 81.309 3.79315 81.8358 3.58669C82.3625 3.38091 82.9932 3.27734 83.7276 3.27734C84.2496 3.27734 84.7674 3.32981 85.2811 3.43542C85.7941 3.54104 86.2239 3.68958 86.5691 3.88241L85.8127 5.57906C85.1752 5.22883 84.4848 5.05303 83.7414 5.05303C83.3432 5.05303 83.0509 5.09937 82.8652 5.19135C82.6796 5.28334 82.5867 5.40395 82.5867 5.55317C82.5867 5.72011 82.6885 5.83594 82.8921 5.90204C83.0956 5.96813 83.4319 6.03559 83.9009 6.10577C84.4937 6.19367 84.9847 6.29451 85.3746 6.40831C85.7639 6.5221 86.1022 6.7306 86.3903 7.03314C86.6778 7.33567 86.8215 7.75881 86.8215 8.30256C86.8215 8.74954 86.684 9.15088 86.4103 9.50656C86.1359 9.86156 85.7309 10.1402 85.1951 10.3419C84.6594 10.5436 84.0158 10.6445 83.2634 10.6445C82.6617 10.6445 82.0682 10.5763 81.4844 10.4407L81.4837 10.4401Z" fill="white"/>
<path d="M71.042 3.39551H68.5195V10.5255H71.042V3.39551Z" fill="white"/>
<path d="M78.8384 3.39551H76.3159V10.5255H78.8384V3.39551Z" fill="white"/>
<path d="M55.9562 0.479865L53.6181 2.79657C52.9724 2.15675 52.9724 1.11969 53.6181 0.479865C54.2638 -0.159955 55.3105 -0.159955 55.9562 0.479865Z" fill="white"/>
</g>
<defs>
<clipPath id="clip0_700_1266">
<rect width="86.821" height="15" fill="white"/>
</clipPath>
</defs>
</svg>
