<svg xmlns="http://www.w3.org/2000/svg" viewBox="0 0 31 31"><path d="M30 29H1a1 1 0 000 2h29a1 1 0 000-2zM1.65 25.53a3 3 0 001.75.55 3.15 3.15 0 00.73-.08H30a1 1 0 000-2H3.84l-.16.05a1.12 1.12 0 01-.86-.14C2.52 23.68 2 23 2 21V4c0-.08 0-2 3-2h21a1.89 1.89 0 012 2v11.24a3 3 0 01-.29 2.14A2.11 2.11 0 0126 18H12s-2-.06-2-1v-2h9c1.24 0 5 0 5-4V9a4 4 0 00-2.15-3.21A5.93 5.93 0 0019 5h-7a3.89 3.89 0 00-4 4v8c0 2.37 2.62 3 4 3h14a4 4 0 003.32-1.39 4.76 4.76 0 00.68-3.72V4a3.89 3.89 0 00-4-4H5C1 0 0 2.62 0 4v17c0 2.21.56 3.74 1.65 4.53zM10 9a1.89 1.89 0 012-2h7a4.12 4.12 0 011.89.56A2.13 2.13 0 0122 9v2c0 .94 0 2-3 2h-9z" fill="#7293de" data-name="Camada 2"/></svg>