<svg xmlns="http://www.w3.org/2000/svg" viewBox="0 0 27 30"><defs><style>.cls-1{fill:#7293de}</style></defs><g id="Camada_2" data-name="Camada 2"><g id="Camada_2-2" data-name="Camada 2"><path class="cls-1" d="M22.88 0H4.12A4.13 4.13 0 000 4.12v21.76A4.13 4.13 0 004.12 30h18.76A4.13 4.13 0 0027 25.88V4.12A4.13 4.13 0 0022.88 0zM25 25.88A2.12 2.12 0 0122.88 28H4.12A2.12 2.12 0 012 25.88V4.12A2.12 2.12 0 014.12 2h18.76A2.12 2.12 0 0125 4.12z"/><path class="cls-1" d="M21 5H6a1 1 0 000 2h15a1 1 0 000-2zm0 6H6a1 1 0 000 2h15a1 1 0 000-2zm0 6H6a1 1 0 000 2h15a1 1 0 000-2zm0 6H6a1 1 0 000 2h15a1 1 0 000-2z"/></g></g></svg>