<svg width="58" height="10" viewBox="0 0 58 10" fill="none" xmlns="http://www.w3.org/2000/svg">
<g clip-path="url(#clip0_700_1266)">
<path d="M6.72333 0.0078125H4.05967C1.81734 0.0078125 0 1.80894 0 4.03025V5.81094C0 8.12492 1.89298 10.0001 4.22792 10.0001H5.4621V8.69456C5.4621 8.49559 5.62485 8.33479 5.82566 8.33479H6.72333C9.04405 8.33479 10.9251 6.47097 10.9251 4.17153C10.9251 1.87208 9.04405 0.0078125 6.72333 0.0078125ZM6.7357 6.66948L4.91791 6.67766C4.52271 6.67766 4.20179 7.0397 4.20179 7.43172V8.33524C4.20179 8.33524 1.68026 8.26301 1.68026 5.91269V3.97756C1.68026 2.70519 2.72142 1.67357 4.00557 1.67357H6.73525C8.12805 1.67357 9.25678 2.79195 9.25678 4.17198C9.25678 5.55201 8.12805 6.66994 6.73525 6.66994L6.7357 6.66948Z" fill="#0052F5"/>
<path d="M46.521 1.7716C47.0147 1.7716 47.4149 1.37501 47.4149 0.8858C47.4149 0.396586 47.0147 0 46.521 0C46.0272 0 45.627 0.396586 45.627 0.8858C45.627 1.37501 46.0272 1.7716 46.521 1.7716Z" fill="#0052F5"/>
<path d="M51.7182 1.7716C52.212 1.7716 52.6122 1.37501 52.6122 0.8858C52.6122 0.396586 52.212 0 51.7182 0C51.2245 0 50.8242 0.396586 50.8242 0.8858C50.8242 1.37501 51.2245 1.7716 51.7182 1.7716Z" fill="#0052F5"/>
<path d="M17.985 2.48418C18.3422 2.68587 18.625 2.9725 18.8346 3.34363C19.0441 3.71521 19.1486 4.14584 19.1486 4.63735C19.1486 5.12886 19.0436 5.55995 18.8346 5.93107C18.625 6.30265 18.3417 6.58884 17.985 6.79053C17.6279 6.99222 17.2313 7.09306 16.7944 7.09306C16.2337 7.09306 15.7881 6.92635 15.458 6.59292V8.71521H13.7764V2.26068H15.3782V2.73402C15.6909 2.36561 16.1631 2.18164 16.7944 2.18164C17.2309 2.18164 17.6279 2.28249 17.985 2.48418ZM17.1662 5.46591C17.3551 5.26422 17.4496 4.98804 17.4496 4.6369C17.4496 4.28576 17.3551 4.01002 17.1662 3.80788C16.9773 3.60619 16.7353 3.50534 16.4405 3.50534C16.1457 3.50534 15.9036 3.60619 15.7147 3.80788C15.5259 4.00957 15.4314 4.28576 15.4314 4.6369C15.4314 4.98804 15.5259 5.26377 15.7147 5.46591C15.9036 5.6676 16.1452 5.76845 16.4405 5.76845C16.7357 5.76845 16.9773 5.6676 17.1662 5.46591Z" fill="#0052F5"/>
<path d="M21.0182 6.77983C20.6051 6.56951 20.2819 6.27697 20.049 5.90266C19.8157 5.52835 19.6992 5.10453 19.6992 4.6312C19.6992 4.15786 19.8157 3.74267 20.049 3.36836C20.2819 2.99406 20.6038 2.70333 21.0136 2.49574C21.4239 2.28814 21.8884 2.18457 22.4078 2.18457C22.9272 2.18457 23.393 2.2886 23.8061 2.49574C24.2192 2.70333 24.5406 2.99269 24.7707 3.36382C25.0009 3.7354 25.1159 4.15741 25.1159 4.6312C25.1159 5.10498 25.0009 5.52881 24.7707 5.90266C24.5406 6.27697 24.2187 6.56905 23.8061 6.77983C23.393 6.99015 22.9268 7.09554 22.4078 7.09554C21.8888 7.09554 21.4313 6.99015 21.0182 6.77983ZM23.1335 5.46884C23.3224 5.26715 23.4169 4.98779 23.4169 4.6312C23.4169 4.2746 23.3224 4.00568 23.1335 3.80672C22.9447 3.60821 22.7026 3.50873 22.4078 3.50873C22.113 3.50873 21.8709 3.60821 21.6821 3.80672C21.4932 4.00568 21.3987 4.28051 21.3987 4.6312C21.3987 4.98188 21.4932 5.26715 21.6821 5.46884C21.8709 5.67053 22.1126 5.77138 22.4078 5.77138C22.7031 5.77138 22.9447 5.67053 23.1335 5.46884Z" fill="#0052F5"/>
<path d="M28.0286 2.34674C28.3028 2.23863 28.6173 2.18457 28.9712 2.18457V3.50873C28.3844 3.46875 27.9488 3.75448 27.7453 3.94709C27.5417 4.14014 27.4399 4.43541 27.4399 4.83288V7.0165H25.7583V2.26316H27.3602V2.83325C27.5312 2.61702 27.754 2.45485 28.0286 2.34674Z" fill="#0052F5"/>
<path d="M33.4276 6.82402C33.286 6.9117 33.1136 6.97893 32.91 7.02571C32.7065 7.0725 32.4896 7.09612 32.2595 7.09612C31.6341 7.09612 31.1532 6.94395 30.8167 6.64005C30.4802 6.33615 30.3119 5.88281 30.3119 5.28046V3.49342H29.6128V2.1847H30.3119V1.20215H31.9936V2.18425H33.0911V3.49296H31.9936V5.26275C31.9936 5.43218 32.0394 5.56528 32.1307 5.66158C32.2219 5.75789 32.3443 5.80649 32.4979 5.80649C32.6927 5.80649 32.8637 5.75698 33.0114 5.65749L33.4272 6.82402H33.4276Z" fill="#0052F5"/>
<path d="M38.1202 2.72377C37.7012 2.364 37.0932 2.18457 36.2964 2.18457C35.9132 2.18457 35.5303 2.23318 35.1498 2.32948C34.7693 2.42578 34.4465 2.5616 34.1806 2.73695L34.7473 3.86804C34.9128 3.73904 35.1136 3.6391 35.3493 3.56551C35.5854 3.49283 35.8183 3.45558 36.0489 3.45558C36.6971 3.45558 37.0373 3.70769 37.0662 4.20965H36.1103C35.385 4.20965 34.8472 4.33457 34.4997 4.58304C34.1508 4.83107 33.9775 5.18039 33.9775 5.63101C33.9775 5.91174 34.0468 6.16159 34.1857 6.38054C34.3246 6.59994 34.5295 6.77392 34.8005 6.90248C35.0723 7.03149 35.3937 7.09508 35.766 7.09508C36.4684 7.09508 36.9406 6.86387 37.1822 6.40189V7.01559H38.7487V4.37636C38.7487 3.63365 38.5388 3.08309 38.1206 2.72286L38.1202 2.72377ZM37.0662 5.4911C37.0015 5.67235 36.8956 5.80999 36.7485 5.90357C36.5999 5.99714 36.4294 6.04393 36.235 6.04393C36.0406 6.04393 35.8861 5.99987 35.7747 5.9122C35.6619 5.82453 35.606 5.70778 35.606 5.56106C35.606 5.24035 35.8508 5.07909 36.3409 5.07909H37.0662V5.49156V5.4911Z" fill="#0052F5"/>
<path d="M43.7824 2.48306C44.1395 2.68202 44.4224 2.96684 44.6319 3.33797C44.8414 3.70955 44.946 4.14018 44.946 4.63169C44.946 5.12319 44.841 5.55565 44.6319 5.9295C44.4224 6.30381 44.1391 6.5918 43.7824 6.79349C43.4253 6.99518 43.0287 7.09603 42.5918 7.09603C41.9605 7.09603 41.4883 6.91206 41.1756 6.54365V7.01699H39.5737V0.509766H41.2554V2.67611C41.58 2.3486 42.0256 2.18506 42.5918 2.18506C43.0282 2.18506 43.4253 2.28455 43.7824 2.48306ZM42.9636 5.46934C43.1525 5.26765 43.2469 4.98828 43.2469 4.63169C43.2469 4.2751 43.1525 4.00618 42.9636 3.80721C42.7747 3.6087 42.5326 3.50922 42.2378 3.50922C41.9431 3.50922 41.701 3.6087 41.5121 3.80721C41.3232 4.00618 41.2288 4.281 41.2288 4.63169C41.2288 4.98237 41.3232 5.26765 41.5121 5.46934C41.701 5.67103 41.9426 5.77187 42.2378 5.77187C42.5331 5.77187 42.7747 5.67103 42.9636 5.46934Z" fill="#0052F5"/>
<path d="M48.2788 0.509766H49.9604V7.01699H48.2788V0.509766Z" fill="#0052F5"/>
<path d="M54.3228 6.95971C53.9335 6.86932 53.6204 6.75076 53.3848 6.60448L53.8891 5.4643C54.1073 5.59876 54.3672 5.70551 54.668 5.78455C54.9687 5.86359 55.2667 5.90311 55.562 5.90311C55.8334 5.90311 56.0269 5.8754 56.1419 5.81998C56.257 5.76457 56.3148 5.68416 56.3148 5.57877C56.3148 5.47339 56.2456 5.39889 56.1066 5.35528C55.9677 5.31122 55.7481 5.26897 55.4474 5.22809C55.0636 5.1813 54.7377 5.11998 54.4695 5.04411C54.2008 4.96825 53.9693 4.82789 53.7745 4.62302C53.5796 4.4186 53.4824 4.13197 53.4824 3.76357C53.4824 3.45967 53.5737 3.18893 53.7566 2.95226C53.9395 2.7156 54.2063 2.52844 54.5575 2.3908C54.9087 2.25362 55.3291 2.18457 55.8187 2.18457C56.1667 2.18457 56.5119 2.21955 56.8544 2.28996C57.1964 2.36037 57.4829 2.4594 57.7131 2.58795L57.2088 3.71905C56.7838 3.48556 56.3235 3.36836 55.8279 3.36836C55.5625 3.36836 55.3676 3.39925 55.2438 3.46058C55.12 3.5219 55.0581 3.6023 55.0581 3.70179C55.0581 3.81308 55.126 3.8903 55.2617 3.93437C55.3974 3.97843 55.6216 4.0234 55.9343 4.07019C56.3295 4.12879 56.6568 4.19602 56.9167 4.27188C57.1762 4.34774 57.4018 4.48674 57.5939 4.68843C57.7855 4.89012 57.8813 5.17221 57.8813 5.53471C57.8813 5.8327 57.7897 6.10026 57.6072 6.33738C57.4243 6.57405 57.1542 6.75984 56.7971 6.8943C56.4399 7.02876 56.0108 7.09599 55.5093 7.09599C55.1081 7.09599 54.7125 7.05056 54.3232 6.96017L54.3228 6.95971Z" fill="#0052F5"/>
<path d="M47.3613 2.26367H45.6797V7.01701H47.3613V2.26367Z" fill="#0052F5"/>
<path d="M52.5591 2.26367H50.8774V7.01701H52.5591V2.26367Z" fill="#0052F5"/>
<path d="M37.304 0.31991L35.7452 1.86438C35.3147 1.43783 35.3147 0.746457 35.7452 0.31991C36.1757 -0.106637 36.8735 -0.106637 37.304 0.31991Z" fill="#0052F5"/>
</g>
<defs>
<clipPath id="clip0_700_1266">
<rect width="57.8807" height="10" fill="white"/>
</clipPath>
</defs>
</svg>
