<svg width="87" height="15" viewBox="0 0 87 15" fill="none" xmlns="http://www.w3.org/2000/svg"><g clip-path="url(#clip0_700_1266)" fill="#fff"><path d="M10.085.012H6.089C2.727.012 0 2.713 0 6.045v2.671C0 12.187 2.84 15 6.342 15h1.851v-1.958c0-.299.244-.54.545-.54h1.347c3.481 0 6.303-2.796 6.303-6.245 0-3.449-2.822-6.245-6.303-6.245zm.019 9.992l-2.727.013c-.593 0-1.074.543-1.074 1.13v1.356S2.52 12.395 2.52 8.869V5.966c0-1.908 1.562-3.456 3.488-3.456h4.095c2.09 0 3.782 1.678 3.782 3.748 0 2.07-1.693 3.747-3.782 3.747zm59.677-7.347c.741 0 1.341-.594 1.341-1.328 0-.734-.6-1.329-1.34-1.329-.741 0-1.342.595-1.342 1.329s.6 1.328 1.341 1.328zm7.796 0c.74 0 1.34-.594 1.34-1.328 0-.734-.6-1.329-1.34-1.329-.74 0-1.341.595-1.341 1.329s.6 1.328 1.34 1.328zM26.978 3.726c.535.303.96.733 1.274 1.29.314.557.47 1.203.47 1.94 0 .737-.157 1.384-.47 1.94a3.32 3.32 0 01-1.274 1.29 3.568 3.568 0 01-1.786.454c-.841 0-1.51-.25-2.005-.75v3.183h-2.522V3.39h2.402v.71c.47-.553 1.178-.829 2.125-.829.654 0 1.25.152 1.786.454zM25.749 8.2c.284-.303.425-.717.425-1.244 0-.526-.141-.94-.425-1.243-.283-.303-.646-.454-1.088-.454-.443 0-.806.151-1.089.454-.283.302-.425.717-.425 1.243 0 .527.142.94.425 1.244.283.302.646.454 1.089.454.443 0 .805-.152 1.088-.454zm5.778 1.97a3.591 3.591 0 01-1.454-1.316c-.35-.561-.524-1.197-.524-1.907s.175-1.333.524-1.894c.35-.561.833-.998 1.447-1.309.616-.311 1.313-.467 2.092-.467.779 0 1.478.156 2.097.467a3.52 3.52 0 011.447 1.302c.345.558.518 1.19.518 1.901 0 .711-.173 1.347-.518 1.907-.345.562-.828 1-1.447 1.316-.62.316-1.319.474-2.097.474-.779 0-1.465-.158-2.085-.474zM34.7 8.204c.284-.303.425-.722.425-1.257 0-.535-.141-.938-.425-1.236-.283-.298-.646-.447-1.088-.447-.443 0-.806.149-1.089.447-.283.298-.425.71-.425 1.236s.142.954.425 1.257c.283.302.646.454 1.089.454.443 0 .805-.152 1.088-.454zm7.343-4.684c.41-.162.883-.243 1.413-.243v1.987a2.473 2.473 0 00-1.838.657c-.306.29-.458.733-.458 1.329v3.275h-2.523v-7.13h2.403v.855c.257-.324.59-.567 1.003-.73zm8.099 6.716a2.557 2.557 0 01-.777.303c-.305.07-.63.106-.976.106-.938 0-1.659-.229-2.164-.684-.505-.456-.757-1.136-.757-2.04v-2.68H44.42V3.278h1.05V1.804h2.522v1.473h1.646V5.24H47.99v2.655c0 .254.068.453.205.598.137.144.32.217.551.217.292 0 .549-.074.77-.223l.624 1.75zm7.038-6.15c-.628-.54-1.54-.809-2.735-.809-.575 0-1.15.073-1.72.218-.571.144-1.055.348-1.454.61l.85 1.698a2.82 2.82 0 01.903-.454 3.553 3.553 0 011.05-.165c.972 0 1.482.378 1.525 1.131h-1.434c-1.087 0-1.894.187-2.415.56-.524.372-.784.896-.784 1.572 0 .421.104.796.313 1.124.208.33.515.59.922.783.407.194.89.29 1.448.29 1.053 0 1.762-.348 2.124-1.04v.92h2.35V6.565c0-1.114-.315-1.94-.942-2.48v.001zM55.6 8.237a1.173 1.173 0 01-.477.619c-.223.14-.479.21-.77.21-.292 0-.524-.066-.69-.197a.632.632 0 01-.254-.527c0-.481.367-.723 1.102-.723H55.6v.619zm10.074-4.512c.536.298.96.725 1.274 1.282.314.557.471 1.203.471 1.94 0 .738-.157 1.386-.47 1.947a3.31 3.31 0 01-1.275 1.296 3.566 3.566 0 01-1.786.454c-.947 0-1.655-.276-2.124-.829v.71H59.36V.765h2.522v3.25c.487-.492 1.156-.737 2.005-.737.655 0 1.25.149 1.786.447zm-1.228 4.479c.283-.303.425-.722.425-1.256 0-.535-.142-.939-.425-1.237-.284-.298-.647-.447-1.089-.447-.442 0-.805.149-1.089.447-.283.298-.425.71-.425 1.237 0 .526.142.953.425 1.256.284.303.646.454 1.089.454.443 0 .805-.151 1.089-.454zM72.418.765h2.522v9.76h-2.522V.765zm9.066 9.675c-.584-.135-1.054-.313-1.407-.533l.756-1.71c.328.202.717.362 1.168.48a5.25 5.25 0 001.341.178c.408 0 .698-.041.87-.125.173-.083.26-.203.26-.361 0-.158-.104-.27-.313-.336-.208-.066-.537-.129-.988-.19a9.864 9.864 0 01-1.467-.276 2.264 2.264 0 01-1.043-.632c-.292-.307-.438-.737-.438-1.29 0-.455.137-.861.411-1.216.275-.355.675-.636 1.202-.842.526-.206 1.157-.31 1.892-.31.522 0 1.04.053 1.553.158.513.106.943.255 1.288.447l-.756 1.697a4.233 4.233 0 00-2.072-.526c-.398 0-.69.046-.876.138-.185.092-.278.213-.278.362 0 .167.102.283.305.349.204.066.54.134 1.009.204.593.088 1.084.189 1.474.302.389.114.727.323 1.015.625.288.303.431.726.431 1.27 0 .447-.137.848-.41 1.204-.275.355-.68.633-1.216.835-.536.202-1.18.303-1.932.303a7.84 7.84 0 01-1.779-.204zM71.042 3.396h-2.523v7.13h2.523v-7.13zm7.796 0h-2.522v7.13h2.522v-7.13zM55.956.48l-2.338 2.317a1.627 1.627 0 010-2.317 1.664 1.664 0 012.338 0z"/></g><defs><clipPath id="clip0_700_1266"><path fill="#fff" d="M0 0h86.821v15H0z"/></clipPath></defs></svg>