<svg width="58" height="10" viewBox="0 0 58 10" fill="none" xmlns="http://www.w3.org/2000/svg"><g clip-path="url(#clip0_700_1266)" fill="#0052F5"><path d="M6.723.008H4.06C1.817.008 0 1.808 0 4.03v1.78C0 8.126 1.893 10 4.228 10h1.234V8.695c0-.2.163-.36.364-.36h.897c2.321 0 4.202-1.864 4.202-4.163 0-2.3-1.881-4.164-4.202-4.164zm.013 6.661l-1.818.009c-.395 0-.716.362-.716.754v.903S1.68 8.263 1.68 5.913V3.978a2.315 2.315 0 012.326-2.304h2.73a2.509 2.509 0 012.52 2.498 2.509 2.509 0 01-2.52 2.498zm39.785-4.897a.89.89 0 00.894-.886A.89.89 0 0046.52 0a.89.89 0 00-.894.886c0 .489.4.886.894.886zm5.197 0a.89.89 0 00.894-.886.89.89 0 00-.894-.886.89.89 0 00-.894.886c0 .489.4.886.894.886zm-33.733.712c.357.202.64.489.85.86.21.371.314.802.314 1.293 0 .492-.105.923-.314 1.294-.21.372-.493.658-.85.86a2.378 2.378 0 01-1.19.302c-.561 0-1.007-.167-1.337-.5v2.122h-1.682V2.261h1.602v.473c.313-.368.785-.552 1.416-.552.437 0 .834.1 1.191.302zm-.819 2.982c.19-.202.284-.478.284-.83 0-.35-.095-.626-.284-.828a.95.95 0 00-.726-.303.95.95 0 00-.725.303c-.19.202-.284.478-.284.829s.095.627.284.829a.95.95 0 00.726.302.95.95 0 00.725-.302zm3.852 1.314a2.394 2.394 0 01-.969-.877 2.354 2.354 0 01-.35-1.272c0-.473.117-.888.35-1.263a2.37 2.37 0 01.965-.872c.41-.208.874-.311 1.394-.311.52 0 .985.104 1.398.31.413.208.735.498.965.869.23.371.345.793.345 1.267 0 .474-.115.898-.345 1.272a2.37 2.37 0 01-.965.877c-.413.21-.88.316-1.398.316-.52 0-.977-.106-1.39-.316zm2.116-1.311c.188-.202.283-.481.283-.838 0-.356-.095-.625-.284-.824a.958.958 0 00-.725-.298.96.96 0 00-.726.298c-.189.199-.283.474-.283.824s.094.636.283.838a.95.95 0 00.726.302.95.95 0 00.726-.302zm4.895-3.122c.274-.108.588-.162.942-.162v1.324a1.649 1.649 0 00-1.226.438c-.203.193-.305.488-.305.886v2.183h-1.682V2.263h1.602v.57c.171-.216.394-.378.669-.486zm5.399 4.477a1.703 1.703 0 01-.518.202c-.203.046-.42.07-.65.07-.626 0-1.107-.152-1.443-.456-.337-.304-.505-.757-.505-1.36V3.493h-.7V2.185h.7v-.983h1.682v.982h1.097v1.309h-1.097v1.77c0 .17.045.302.137.399a.482.482 0 00.367.144.89.89 0 00.513-.149l.416 1.167zm4.692-4.1c-.419-.36-1.027-.54-1.824-.54-.383 0-.766.05-1.146.145-.38.097-.703.233-.97.408l.567 1.131a1.88 1.88 0 01.602-.302c.236-.073.47-.11.7-.11.648 0 .988.252 1.017.754h-.956c-.725 0-1.263.125-1.61.373-.35.248-.523.597-.523 1.048 0 .28.07.53.209.75.139.219.343.393.614.521.272.13.594.193.966.193.702 0 1.175-.231 1.416-.693v.614h1.567v-2.64c0-.742-.21-1.293-.628-1.653zM37.066 5.49a.782.782 0 01-.318.413.942.942 0 01-.513.14c-.194 0-.349-.044-.46-.132a.421.421 0 01-.169-.35c0-.322.245-.483.735-.483h.725v.413zm6.716-3.007c.358.199.64.484.85.855.21.372.314.802.314 1.294 0 .491-.105.924-.314 1.298-.21.374-.493.662-.85.863a2.378 2.378 0 01-1.19.303c-.631 0-1.104-.184-1.416-.552v.473h-1.602V.51h1.681v2.166c.325-.327.77-.49 1.337-.49.436 0 .833.099 1.19.297zm-.818 2.986c.189-.201.283-.48.283-.837s-.094-.626-.283-.825a.958.958 0 00-.726-.298.96.96 0 00-.726.298c-.189.2-.283.474-.283.825 0 .35.094.636.283.837a.95.95 0 00.726.303.95.95 0 00.726-.303zM48.279.51h1.681v6.507h-1.68V.51zm6.044 6.45c-.39-.09-.703-.21-.938-.356l.504-1.14c.218.135.478.242.779.32.3.08.599.12.894.12.271 0 .465-.029.58-.084.115-.055.173-.136.173-.241 0-.106-.07-.18-.208-.224a4.316 4.316 0 00-.66-.127 6.573 6.573 0 01-.978-.184 1.509 1.509 0 01-.694-.421c-.195-.204-.293-.491-.293-.86 0-.303.092-.574.275-.81.183-.237.45-.425.8-.562.352-.137.772-.206 1.262-.206.348 0 .693.035 1.035.105.342.07.629.17.86.298l-.505 1.131a2.822 2.822 0 00-1.381-.35c-.266 0-.46.03-.584.092-.124.06-.186.141-.186.24 0 .112.068.19.204.233.135.044.36.09.672.136.396.059.723.126.983.202.26.076.485.215.677.416.191.202.287.484.287.847 0 .298-.091.565-.274.802-.183.237-.453.423-.81.557-.357.135-.786.202-1.288.202a5.2 5.2 0 01-1.186-.136zm-6.962-4.696H45.68v4.753h1.681V2.264zm5.199 0h-1.683v4.753h1.682V2.264zM37.304.32l-1.559 1.544a1.085 1.085 0 010-1.544 1.11 1.11 0 011.559 0z"/></g><defs><clipPath id="clip0_700_1266"><path fill="#fff" d="M0 0h57.881v10H0z"/></clipPath></defs></svg>